<mxfile host="app.diagrams.net" modified="2020-05-06T07:30:01.989Z" agent="5.0 (Windows NT 10.0; Win64; x64) AppleWebKit/537.36 (KHTML, like Gecko) Chrome/80.0.3987.163 Safari/537.36" etag="Ds9Mbrki10zPA4748fDd" version="13.0.8" type="github">
  <diagram id="joey8i4zDkAVkNtS49Aw" name="第 1 页">
    <mxGraphModel dx="1248" dy="686" grid="1" gridSize="10" guides="1" tooltips="1" connect="1" arrows="1" fold="1" page="1" pageScale="1" pageWidth="1920" pageHeight="1200" math="0" shadow="0">
      <root>
        <mxCell id="0" />
        <mxCell id="1" parent="0" />
        <mxCell id="NHZU6Stkqw4vY0_HKBbh-7" value="&lt;font style=&quot;font-size: 20px&quot;&gt;rtc-flume-monitor&lt;/font&gt;" style="rounded=1;whiteSpace=wrap;html=1;strokeWidth=1;fillColor=none;" parent="1" vertex="1">
          <mxGeometry x="540" y="380" width="200" height="60" as="geometry" />
        </mxCell>
        <mxCell id="NHZU6Stkqw4vY0_HKBbh-12" value="" style="group" parent="1" vertex="1" connectable="0">
          <mxGeometry x="230" y="290" width="160" height="270" as="geometry" />
        </mxCell>
        <mxCell id="NHZU6Stkqw4vY0_HKBbh-6" value="" style="rounded=0;whiteSpace=wrap;html=1;fillColor=none;dashed=1;strokeWidth=1;" parent="NHZU6Stkqw4vY0_HKBbh-12" vertex="1">
          <mxGeometry width="160" height="270" as="geometry" />
        </mxCell>
        <mxCell id="NHZU6Stkqw4vY0_HKBbh-1" value="&lt;font style=&quot;font-size: 22px&quot;&gt;Flume&lt;/font&gt;" style="rounded=1;whiteSpace=wrap;html=1;" parent="NHZU6Stkqw4vY0_HKBbh-12" vertex="1">
          <mxGeometry x="20" y="20" width="120" height="60" as="geometry" />
        </mxCell>
        <mxCell id="NHZU6Stkqw4vY0_HKBbh-2" value="&lt;font style=&quot;font-size: 22px&quot;&gt;Flume&lt;/font&gt;" style="rounded=1;whiteSpace=wrap;html=1;" parent="NHZU6Stkqw4vY0_HKBbh-12" vertex="1">
          <mxGeometry x="20" y="90" width="120" height="60" as="geometry" />
        </mxCell>
        <mxCell id="NHZU6Stkqw4vY0_HKBbh-3" value="&lt;font style=&quot;font-size: 22px&quot;&gt;Flume&lt;/font&gt;" style="rounded=1;whiteSpace=wrap;html=1;" parent="NHZU6Stkqw4vY0_HKBbh-12" vertex="1">
          <mxGeometry x="20" y="160" width="120" height="60" as="geometry" />
        </mxCell>
        <mxCell id="NHZU6Stkqw4vY0_HKBbh-4" value="&lt;font style=&quot;font-size: 25px&quot;&gt;......&lt;/font&gt;" style="text;html=1;strokeColor=none;fillColor=none;align=center;verticalAlign=middle;whiteSpace=wrap;rounded=0;" parent="NHZU6Stkqw4vY0_HKBbh-12" vertex="1">
          <mxGeometry x="60" y="230" width="40" height="20" as="geometry" />
        </mxCell>
        <mxCell id="NHZU6Stkqw4vY0_HKBbh-13" value="" style="endArrow=classic;html=1;exitX=1;exitY=0.5;exitDx=0;exitDy=0;entryX=0;entryY=0.5;entryDx=0;entryDy=0;" parent="1" source="NHZU6Stkqw4vY0_HKBbh-1" target="NHZU6Stkqw4vY0_HKBbh-7" edge="1">
          <mxGeometry width="50" height="50" relative="1" as="geometry">
            <mxPoint x="530" y="570" as="sourcePoint" />
            <mxPoint x="580" y="520" as="targetPoint" />
          </mxGeometry>
        </mxCell>
        <mxCell id="NHZU6Stkqw4vY0_HKBbh-14" value="" style="endArrow=classic;html=1;exitX=1;exitY=0.5;exitDx=0;exitDy=0;entryX=0;entryY=0.5;entryDx=0;entryDy=0;" parent="1" source="NHZU6Stkqw4vY0_HKBbh-2" target="NHZU6Stkqw4vY0_HKBbh-7" edge="1">
          <mxGeometry width="50" height="50" relative="1" as="geometry">
            <mxPoint x="570" y="540" as="sourcePoint" />
            <mxPoint x="620" y="490" as="targetPoint" />
          </mxGeometry>
        </mxCell>
        <mxCell id="NHZU6Stkqw4vY0_HKBbh-15" value="" style="endArrow=classic;html=1;exitX=1;exitY=0.5;exitDx=0;exitDy=0;entryX=0;entryY=0.5;entryDx=0;entryDy=0;" parent="1" source="NHZU6Stkqw4vY0_HKBbh-3" target="NHZU6Stkqw4vY0_HKBbh-7" edge="1">
          <mxGeometry width="50" height="50" relative="1" as="geometry">
            <mxPoint x="460" y="570" as="sourcePoint" />
            <mxPoint x="510" y="520" as="targetPoint" />
          </mxGeometry>
        </mxCell>
        <mxCell id="NHZU6Stkqw4vY0_HKBbh-16" value="&lt;font style=&quot;font-size: 15px&quot;&gt;HTTP 5653 Metrics&lt;/font&gt;" style="text;html=1;strokeColor=#d6b656;fillColor=#fff2cc;align=center;verticalAlign=middle;whiteSpace=wrap;rounded=0;dashed=1;" parent="1" vertex="1">
          <mxGeometry x="400" y="310" width="160" height="30" as="geometry" />
        </mxCell>
        <mxCell id="NHZU6Stkqw4vY0_HKBbh-17" value="&lt;div style=&quot;text-align: left&quot;&gt;&lt;span style=&quot;font-size: 15px&quot;&gt;EventDrainSuccessCount&lt;/span&gt;&lt;/div&gt;&lt;font&gt;&lt;div style=&quot;text-align: left&quot;&gt;&lt;span style=&quot;font-size: 15px&quot;&gt;EventDrainSuccessSize&lt;/span&gt;&lt;/div&gt;&lt;/font&gt;" style="text;html=1;strokeColor=#d6b656;fillColor=#fff2cc;align=center;verticalAlign=middle;whiteSpace=wrap;rounded=0;dashed=1;" parent="1" vertex="1">
          <mxGeometry x="520" y="470" width="230" height="40" as="geometry" />
        </mxCell>
        <mxCell id="NHZU6Stkqw4vY0_HKBbh-19" value="&lt;font style=&quot;font-size: 22px&quot;&gt;Flume&lt;/font&gt;" style="rounded=1;whiteSpace=wrap;html=1;" parent="1" vertex="1">
          <mxGeometry x="790" y="380" width="120" height="60" as="geometry" />
        </mxCell>
        <mxCell id="NHZU6Stkqw4vY0_HKBbh-20" value="" style="endArrow=classic;html=1;exitX=1;exitY=0.5;exitDx=0;exitDy=0;entryX=0;entryY=0.5;entryDx=0;entryDy=0;" parent="1" source="NHZU6Stkqw4vY0_HKBbh-7" target="NHZU6Stkqw4vY0_HKBbh-19" edge="1">
          <mxGeometry width="50" height="50" relative="1" as="geometry">
            <mxPoint x="850" y="540" as="sourcePoint" />
            <mxPoint x="900" y="490" as="targetPoint" />
          </mxGeometry>
        </mxCell>
        <mxCell id="NHZU6Stkqw4vY0_HKBbh-23" value="&lt;font style=&quot;font-size: 22px&quot;&gt;Kafka&lt;/font&gt;" style="rounded=1;whiteSpace=wrap;html=1;strokeWidth=1;fillColor=none;" parent="1" vertex="1">
          <mxGeometry x="950" y="380" width="120" height="60" as="geometry" />
        </mxCell>
        <mxCell id="NHZU6Stkqw4vY0_HKBbh-25" value="" style="endArrow=classic;html=1;exitX=1;exitY=0.5;exitDx=0;exitDy=0;entryX=0;entryY=0.5;entryDx=0;entryDy=0;" parent="1" source="NHZU6Stkqw4vY0_HKBbh-19" target="NHZU6Stkqw4vY0_HKBbh-23" edge="1">
          <mxGeometry width="50" height="50" relative="1" as="geometry">
            <mxPoint x="930" y="520" as="sourcePoint" />
            <mxPoint x="980" y="470" as="targetPoint" />
          </mxGeometry>
        </mxCell>
        <mxCell id="NHZU6Stkqw4vY0_HKBbh-26" value="&lt;font style=&quot;font-size: 22px&quot;&gt;ES&lt;/font&gt;" style="rounded=1;whiteSpace=wrap;html=1;strokeWidth=1;fillColor=none;" parent="1" vertex="1">
          <mxGeometry x="1100" y="380" width="120" height="60" as="geometry" />
        </mxCell>
        <mxCell id="NHZU6Stkqw4vY0_HKBbh-27" value="" style="endArrow=classic;html=1;exitX=1;exitY=0.5;exitDx=0;exitDy=0;entryX=0;entryY=0.5;entryDx=0;entryDy=0;" parent="1" source="NHZU6Stkqw4vY0_HKBbh-23" target="NHZU6Stkqw4vY0_HKBbh-26" edge="1">
          <mxGeometry width="50" height="50" relative="1" as="geometry">
            <mxPoint x="1160" y="490" as="sourcePoint" />
            <mxPoint x="1210" y="440" as="targetPoint" />
          </mxGeometry>
        </mxCell>
        <mxCell id="NHZU6Stkqw4vY0_HKBbh-28" value="&lt;font style=&quot;font-size: 22px&quot;&gt;Kibana&lt;/font&gt;" style="shape=process;whiteSpace=wrap;html=1;backgroundOutline=1;strokeWidth=1;fillColor=none;" parent="1" vertex="1">
          <mxGeometry x="1250" y="380" width="120" height="60" as="geometry" />
        </mxCell>
        <mxCell id="NHZU6Stkqw4vY0_HKBbh-29" value="" style="endArrow=classic;html=1;exitX=1;exitY=0.5;exitDx=0;exitDy=0;entryX=0;entryY=0.5;entryDx=0;entryDy=0;" parent="1" source="NHZU6Stkqw4vY0_HKBbh-26" target="NHZU6Stkqw4vY0_HKBbh-28" edge="1">
          <mxGeometry width="50" height="50" relative="1" as="geometry">
            <mxPoint x="1190" y="520" as="sourcePoint" />
            <mxPoint x="1240" y="470" as="targetPoint" />
          </mxGeometry>
        </mxCell>
        <mxCell id="NHZU6Stkqw4vY0_HKBbh-30" value="&lt;span style=&quot;font-size: 19px&quot;&gt;&amp;nbsp;GLOG System&lt;/span&gt;" style="text;html=1;strokeColor=#d79b00;fillColor=#ffe6cc;align=center;verticalAlign=middle;whiteSpace=wrap;rounded=0;" parent="1" vertex="1">
          <mxGeometry x="970" y="320" width="190" height="35" as="geometry" />
        </mxCell>
        <mxCell id="8snfYQQL1OkyhRyIiCZM-1" value="&lt;font style=&quot;font-size: 20px&quot;&gt;flume_exporter&lt;/font&gt;" style="rounded=1;whiteSpace=wrap;html=1;strokeWidth=1;fillColor=none;" vertex="1" parent="1">
          <mxGeometry x="540" y="730" width="200" height="60" as="geometry" />
        </mxCell>
        <mxCell id="8snfYQQL1OkyhRyIiCZM-2" value="" style="group" vertex="1" connectable="0" parent="1">
          <mxGeometry x="230" y="640" width="160" height="270" as="geometry" />
        </mxCell>
        <mxCell id="8snfYQQL1OkyhRyIiCZM-3" value="" style="rounded=0;whiteSpace=wrap;html=1;fillColor=none;dashed=1;strokeWidth=1;" vertex="1" parent="8snfYQQL1OkyhRyIiCZM-2">
          <mxGeometry width="160" height="270" as="geometry" />
        </mxCell>
        <mxCell id="8snfYQQL1OkyhRyIiCZM-4" value="&lt;font style=&quot;font-size: 22px&quot;&gt;Flume&lt;/font&gt;" style="rounded=1;whiteSpace=wrap;html=1;" vertex="1" parent="8snfYQQL1OkyhRyIiCZM-2">
          <mxGeometry x="20" y="20" width="120" height="60" as="geometry" />
        </mxCell>
        <mxCell id="8snfYQQL1OkyhRyIiCZM-5" value="&lt;font style=&quot;font-size: 22px&quot;&gt;Flume&lt;/font&gt;" style="rounded=1;whiteSpace=wrap;html=1;" vertex="1" parent="8snfYQQL1OkyhRyIiCZM-2">
          <mxGeometry x="20" y="90" width="120" height="60" as="geometry" />
        </mxCell>
        <mxCell id="8snfYQQL1OkyhRyIiCZM-6" value="&lt;font style=&quot;font-size: 22px&quot;&gt;Flume&lt;/font&gt;" style="rounded=1;whiteSpace=wrap;html=1;" vertex="1" parent="8snfYQQL1OkyhRyIiCZM-2">
          <mxGeometry x="20" y="160" width="120" height="60" as="geometry" />
        </mxCell>
        <mxCell id="8snfYQQL1OkyhRyIiCZM-7" value="&lt;font style=&quot;font-size: 25px&quot;&gt;......&lt;/font&gt;" style="text;html=1;strokeColor=none;fillColor=none;align=center;verticalAlign=middle;whiteSpace=wrap;rounded=0;" vertex="1" parent="8snfYQQL1OkyhRyIiCZM-2">
          <mxGeometry x="60" y="230" width="40" height="20" as="geometry" />
        </mxCell>
        <mxCell id="8snfYQQL1OkyhRyIiCZM-8" value="" style="endArrow=classic;html=1;exitX=1;exitY=0.5;exitDx=0;exitDy=0;entryX=0;entryY=0.5;entryDx=0;entryDy=0;" edge="1" parent="1" source="8snfYQQL1OkyhRyIiCZM-4" target="8snfYQQL1OkyhRyIiCZM-1">
          <mxGeometry width="50" height="50" relative="1" as="geometry">
            <mxPoint x="530" y="920" as="sourcePoint" />
            <mxPoint x="580" y="870" as="targetPoint" />
          </mxGeometry>
        </mxCell>
        <mxCell id="8snfYQQL1OkyhRyIiCZM-9" value="" style="endArrow=classic;html=1;exitX=1;exitY=0.5;exitDx=0;exitDy=0;entryX=0;entryY=0.5;entryDx=0;entryDy=0;" edge="1" parent="1" source="8snfYQQL1OkyhRyIiCZM-5" target="8snfYQQL1OkyhRyIiCZM-1">
          <mxGeometry width="50" height="50" relative="1" as="geometry">
            <mxPoint x="570" y="890" as="sourcePoint" />
            <mxPoint x="620" y="840" as="targetPoint" />
          </mxGeometry>
        </mxCell>
        <mxCell id="8snfYQQL1OkyhRyIiCZM-10" value="" style="endArrow=classic;html=1;exitX=1;exitY=0.5;exitDx=0;exitDy=0;entryX=0;entryY=0.5;entryDx=0;entryDy=0;" edge="1" parent="1" source="8snfYQQL1OkyhRyIiCZM-6" target="8snfYQQL1OkyhRyIiCZM-1">
          <mxGeometry width="50" height="50" relative="1" as="geometry">
            <mxPoint x="460" y="920" as="sourcePoint" />
            <mxPoint x="510" y="870" as="targetPoint" />
          </mxGeometry>
        </mxCell>
        <mxCell id="8snfYQQL1OkyhRyIiCZM-11" value="&lt;font style=&quot;font-size: 15px&quot;&gt;HTTP 5653 Metrics&lt;/font&gt;" style="text;html=1;strokeColor=#d6b656;fillColor=#fff2cc;align=center;verticalAlign=middle;whiteSpace=wrap;rounded=0;dashed=1;" vertex="1" parent="1">
          <mxGeometry x="400" y="660" width="160" height="30" as="geometry" />
        </mxCell>
        <mxCell id="8snfYQQL1OkyhRyIiCZM-12" value="&lt;font style=&quot;font-size: 15px&quot;&gt;&lt;div&gt;AppendAcceptedCount&lt;/div&gt;&lt;div&gt;AppendBatchAcceptedCount&lt;/div&gt;&lt;div&gt;AppendBatchReceivedCount&lt;/div&gt;&lt;div&gt;AppendReceivedCount&lt;/div&gt;&lt;div&gt;ChannelWriteFail&lt;/div&gt;&lt;div&gt;EventAcceptedCount&lt;/div&gt;&lt;div&gt;EventReadFail&lt;/div&gt;&lt;div&gt;EventReceivedCount&lt;/div&gt;&lt;div&gt;GenericProcessingFail&lt;/div&gt;&lt;div&gt;KafkaCommitTimer&lt;/div&gt;&lt;div&gt;KafkaEmptyCount&lt;/div&gt;&lt;div&gt;KafkaEventGetTimer&lt;/div&gt;&lt;div&gt;OpenConnectionCount&lt;/div&gt;&lt;/font&gt;" style="text;html=1;strokeColor=#d6b656;fillColor=#fff2cc;align=left;verticalAlign=middle;whiteSpace=wrap;rounded=0;dashed=1;" vertex="1" parent="1">
          <mxGeometry x="530" y="820" width="220" height="250" as="geometry" />
        </mxCell>
        <mxCell id="8snfYQQL1OkyhRyIiCZM-13" value="&lt;font style=&quot;font-size: 20px&quot;&gt;Prometheus Server&lt;/font&gt;" style="rounded=1;whiteSpace=wrap;html=1;" vertex="1" parent="1">
          <mxGeometry x="920" y="730" width="220" height="60" as="geometry" />
        </mxCell>
        <mxCell id="8snfYQQL1OkyhRyIiCZM-14" value="" style="endArrow=classic;html=1;entryX=1;entryY=0.5;entryDx=0;entryDy=0;exitX=0;exitY=0.5;exitDx=0;exitDy=0;" edge="1" parent="1" source="8snfYQQL1OkyhRyIiCZM-13" target="8snfYQQL1OkyhRyIiCZM-1">
          <mxGeometry width="50" height="50" relative="1" as="geometry">
            <mxPoint x="880" y="870" as="sourcePoint" />
            <mxPoint x="930" y="820" as="targetPoint" />
          </mxGeometry>
        </mxCell>
        <mxCell id="8snfYQQL1OkyhRyIiCZM-15" value="&lt;font style=&quot;font-size: 18px&quot;&gt;pull metrics&lt;/font&gt;" style="text;html=1;strokeColor=#d79b00;fillColor=#ffe6cc;align=center;verticalAlign=middle;whiteSpace=wrap;rounded=0;" vertex="1" parent="1">
          <mxGeometry x="790" y="720" width="100" height="30" as="geometry" />
        </mxCell>
        <mxCell id="8snfYQQL1OkyhRyIiCZM-16" value="&lt;font style=&quot;font-size: 22px&quot;&gt;Grafana&lt;/font&gt;" style="shape=process;whiteSpace=wrap;html=1;backgroundOutline=1;strokeWidth=1;fillColor=none;" vertex="1" parent="1">
          <mxGeometry x="1210" y="730" width="120" height="60" as="geometry" />
        </mxCell>
        <mxCell id="8snfYQQL1OkyhRyIiCZM-17" value="" style="endArrow=classic;html=1;exitX=1;exitY=0.5;exitDx=0;exitDy=0;" edge="1" parent="1" source="8snfYQQL1OkyhRyIiCZM-13" target="8snfYQQL1OkyhRyIiCZM-16">
          <mxGeometry width="50" height="50" relative="1" as="geometry">
            <mxPoint x="1180" y="940" as="sourcePoint" />
            <mxPoint x="1230" y="890" as="targetPoint" />
          </mxGeometry>
        </mxCell>
      </root>
    </mxGraphModel>
  </diagram>
</mxfile>
